{
  "accessors": [
    {
      "bufferView": 2,
      "componentType": 5126,
      "count": 65532,
      "max": [
        18.630748748779297,
        17.798656463623047,
        60.95494842529297
      ],
      "min": [
        -10.015019416809082,
        -30.330400466918945,
        0.8644890189170837
      ],
      "type": "VEC3"
    },
    {
      "bufferView": 2,
      "byteOffset": 786384,
      "componentType": 5126,
      "count": 65532,
      "max": [
        1.0,
        1.0,
        1.0
      ],
      "min": [
        -1.0,
        -0.9999893307685852,
        -1.0
      ],
      "type": "VEC3"
    },
    {
      "bufferView": 3,
      "componentType": 5126,
      "count": 65532,
      "max": [
        1.0,
        1.0,
        0.999999463558197,
        1.0
      ],
      "min": [
        -1.0,
        -1.0,
        -0.9999980330467224,
        -1.0
      ],
      "type": "VEC4"
    },
    {
      "bufferView": 1,
      "componentType": 5126,
      "count": 65532,
      "max": [
        0.997730016708374,
        0.9938499927520752
      ],
      "min": [
        0.0019499999471008778,
        0.0019499999471008778
      ],
      "type": "VEC2"
    },
    {
      "bufferView": 0,
      "componentType": 5125,
      "count": 275853,
      "type": "SCALAR"
    },
    {
      "bufferView": 2,
      "byteOffset": 1572768,
      "componentType": 5126,
      "count": 65532,
      "max": [
        5.236818790435791,
        32.60334014892578,
        60.464210510253906
      ],
      "min": [
        -7.915947914123535,
        -32.36433029174805,
        29.81678009033203
      ],
      "type": "VEC3"
    },
    {
      "bufferView": 2,
      "byteOffset": 2359152,
      "componentType": 5126,
      "count": 65532,
      "max": [
        1.0,
        1.0,
        1.0
      ],
      "min": [
        -1.0,
        -1.0,
        -1.0
      ],
      "type": "VEC3"
    },
    {
      "bufferView": 3,
      "byteOffset": 1048512,
      "componentType": 5126,
      "count": 65532,
      "max": [
        1.0,
        1.0,
        1.0,
        1.0
      ],
      "min": [
        -1.0,
        -1.0,
        -1.0,
        -1.0
      ],
      "type": "VEC4"
    },
    {
      "bufferView": 1,
      "byteOffset": 524256,
      "componentType": 5126,
      "count": 65532,
      "max": [
        0.9980400204658508,
        0.9939699769020081
      ],
      "min": [
        0.0019499999471008778,
        0.0019499999471008778
      ],
      "type": "VEC2"
    },
    {
      "bufferView": 0,
      "byteOffset": 1103412,
      "componentType": 5125,
      "count": 258306,
      "type": "SCALAR"
    },
    {
      "bufferView": 2,
      "byteOffset": 3145536,
      "componentType": 5126,
      "count": 31588,
      "max": [
        4.4304728507995605,
        25.141794204711914,
        60.01200866699219
      ],
      "min": [
        -7.9799017906188965,
        -31.342679977416992,
        39.6115608215332
      ],
      "type": "VEC3"
    },
    {
      "bufferView": 2,
      "byteOffset": 3524592,
      "componentType": 5126,
      "count": 31588,
      "max": [
        1.0,
        0.9999813437461853,
        0.9999492168426514
      ],
      "min": [
        -0.9999997615814209,
        -0.9999983310699463,
        -0.9998584985733032
      ],
      "type": "VEC3"
    },
    {
      "bufferView": 3,
      "byteOffset": 2097024,
      "componentType": 5126,
      "count": 31588,
      "max": [
        0.9999541640281677,
        0.9999498724937439,
        0.9999051094055176,
        1.0
      ],
      "min": [
        -1.0,
        -0.999500036239624,
        -0.9999120235443115,
        -1.0
      ],
      "type": "VEC4"
    },
    {
      "bufferView": 1,
      "byteOffset": 1048512,
      "componentType": 5126,
      "count": 31588,
      "max": [
        0.9980400204658508,
        0.9962000250816345
      ],
      "min": [
        0.0019499999471008778,
        0.0019499999471008778
      ],
      "type": "VEC2"
    },
    {
      "bufferView": 0,
      "byteOffset": 2136636,
      "componentType": 5125,
      "count": 128697,
      "type": "SCALAR"
    },
    {
      "bufferView": 4,
      "componentType": 5125,
      "count": 241731,
      "type": "SCALAR"
    },
    {
      "bufferView": 5,
      "componentType": 5125,
      "count": 230619,
      "type": "SCALAR"
    },
    {
      "bufferView": 6,
      "componentType": 5125,
      "count": 127248,
      "type": "SCALAR"
    }
  ],
  "asset": {
    "extras": {
      "credit": "Virtual Museums of Ma\u0142opolska, Jesse Ramsden, CC0",
      "changes": "Remove opaque front disc, scanned secondary and rear optical closure; preserve exterior tube, stand, fittings, UV and vertex normals. Original scan is not optically open.",
      "removedTriangles": 21086
    },
    "generator": "Sketchfab-12.79.0",
    "version": "2.0"
  },
  "bufferViews": [
    {
      "buffer": 0,
      "byteLength": 2651424,
      "name": "floatBufferViews",
      "target": 34963
    },
    {
      "buffer": 0,
      "byteLength": 1301216,
      "byteOffset": 2651424,
      "byteStride": 8,
      "name": "floatBufferViews",
      "target": 34962
    },
    {
      "buffer": 0,
      "byteLength": 3903648,
      "byteOffset": 3952640,
      "byteStride": 12,
      "name": "floatBufferViews",
      "target": 34962
    },
    {
      "buffer": 0,
      "byteLength": 2602432,
      "byteOffset": 7856288,
      "byteStride": 16,
      "name": "floatBufferViews",
      "target": 34962
    },
    {
      "buffer": 0,
      "byteOffset": 10458720,
      "byteLength": 966924,
      "target": 34963
    },
    {
      "buffer": 0,
      "byteOffset": 11425644,
      "byteLength": 922476,
      "target": 34963
    },
    {
      "buffer": 0,
      "byteOffset": 12348120,
      "byteLength": 508992,
      "target": 34963
    }
  ],
  "buffers": [
    {
      "byteLength": 12857112,
      "uri": "the_gregorian_open.bin"
    }
  ],
  "images": [
    {
      "uri": "../../assets/sketchfab/gregorian_telescope/textures/4044_42_V_Teleskop_05_FIN_baseColor.png"
    },
    {
      "uri": "../../assets/sketchfab/gregorian_telescope/textures/4044_42_V_Teleskop_05_FIN_metallicRoughness.png"
    },
    {
      "uri": "../../assets/sketchfab/gregorian_telescope/textures/4044_42_V_Teleskop_05_FIN_normal.png"
    }
  ],
  "materials": [
    {
      "doubleSided": true,
      "name": "4044_42_V_Teleskop_05_FIN",
      "normalTexture": {
        "index": 2,
        "scale": 0.6806449062982646
      },
      "pbrMetallicRoughness": {
        "baseColorTexture": {
          "index": 0
        },
        "metallicRoughnessTexture": {
          "index": 1
        }
      }
    }
  ],
  "meshes": [
    {
      "name": "Object_0",
      "primitives": [
        {
          "attributes": {
            "NORMAL": 1,
            "POSITION": 0,
            "TANGENT": 2,
            "TEXCOORD_0": 3
          },
          "indices": 15,
          "material": 0,
          "mode": 4
        }
      ]
    },
    {
      "name": "Object_1",
      "primitives": [
        {
          "attributes": {
            "NORMAL": 6,
            "POSITION": 5,
            "TANGENT": 7,
            "TEXCOORD_0": 8
          },
          "indices": 16,
          "material": 0,
          "mode": 4
        }
      ]
    },
    {
      "name": "Object_2",
      "primitives": [
        {
          "attributes": {
            "NORMAL": 11,
            "POSITION": 10,
            "TANGENT": 12,
            "TEXCOORD_0": 13
          },
          "indices": 17,
          "material": 0,
          "mode": 4
        }
      ]
    }
  ],
  "nodes": [
    {
      "children": [
        1
      ],
      "matrix": [
        1.0,
        0.0,
        0.0,
        0.0,
        0.0,
        2.220446049250313e-16,
        -1.0,
        0.0,
        0.0,
        1.0,
        2.220446049250313e-16,
        0.0,
        0.0,
        0.0,
        0.0,
        1.0
      ],
      "name": "Sketchfab_model"
    },
    {
      "children": [
        2,
        3,
        4
      ],
      "name": "teleskop.obj.cleaner.materialmerger.gles"
    },
    {
      "mesh": 0,
      "name": "Object_2"
    },
    {
      "mesh": 1,
      "name": "Object_3"
    },
    {
      "mesh": 2,
      "name": "Object_4"
    }
  ],
  "samplers": [
    {
      "magFilter": 9729,
      "minFilter": 9987,
      "wrapS": 10497,
      "wrapT": 10497
    }
  ],
  "scene": 0,
  "scenes": [
    {
      "name": "Sketchfab_Scene",
      "nodes": [
        0
      ]
    }
  ],
  "textures": [
    {
      "sampler": 0,
      "source": 0
    },
    {
      "sampler": 0,
      "source": 1
    },
    {
      "sampler": 0,
      "source": 2
    }
  ]
}
