{
  "accessors": [
    {
      "bufferView": 2,
      "componentType": 5126,
      "count": 33,
      "max": [
        1.0,
        1.0,
        0.0
      ],
      "min": [
        -1.0,
        -1.0,
        0.0
      ],
      "type": "VEC3"
    },
    {
      "bufferView": 2,
      "byteOffset": 396,
      "componentType": 5126,
      "count": 33,
      "max": [
        0.0,
        0.0,
        1.0
      ],
      "min": [
        0.0,
        0.0,
        1.0
      ],
      "type": "VEC3"
    },
    {
      "bufferView": 1,
      "componentType": 5126,
      "count": 33,
      "max": [
        1.0,
        1.0
      ],
      "min": [
        0.0,
        0.0
      ],
      "type": "VEC2"
    },
    {
      "bufferView": 0,
      "componentType": 5125,
      "count": 96,
      "type": "SCALAR"
    },
    {
      "bufferView": 2,
      "byteOffset": 792,
      "componentType": 5126,
      "count": 2502,
      "max": [
        0.23715969920158386,
        0.2345927506685257,
        0.09942030906677246
      ],
      "min": [
        -0.2356323003768921,
        -0.2394147366285324,
        -0.0989966094493866
      ],
      "type": "VEC3"
    },
    {
      "bufferView": 2,
      "byteOffset": 30816,
      "componentType": 5126,
      "count": 2502,
      "max": [
        0.9982823729515076,
        0.9978423118591309,
        0.9998189806938171
      ],
      "min": [
        -0.9992902874946594,
        -0.9999858140945435,
        -0.99988853931427
      ],
      "type": "VEC3"
    },
    {
      "bufferView": 3,
      "componentType": 5126,
      "count": 2502,
      "max": [
        0.9982329607009888,
        0.9988673329353333,
        0.998454749584198,
        1.0
      ],
      "min": [
        -0.948788046836853,
        -0.8009806275367737,
        -0.9379822611808777,
        1.0
      ],
      "type": "VEC4"
    },
    {
      "bufferView": 1,
      "byteOffset": 264,
      "componentType": 5126,
      "count": 2502,
      "max": [
        0.5335159301757812,
        0.9986382722854614
      ],
      "min": [
        0.00017319119069725275,
        0.0001537799835205078
      ],
      "type": "VEC2"
    },
    {
      "bufferView": 0,
      "byteOffset": 384,
      "componentType": 5125,
      "count": 14469,
      "type": "SCALAR"
    },
    {
      "bufferView": 2,
      "byteOffset": 60840,
      "componentType": 5126,
      "count": 2619,
      "max": [
        0.21981169283390045,
        0.2291804850101471,
        0.6187344193458557
      ],
      "min": [
        -0.2455318421125412,
        -0.23824197053909302,
        0.42195048928260803
      ],
      "type": "VEC3"
    },
    {
      "bufferView": 2,
      "byteOffset": 92268,
      "componentType": 5126,
      "count": 2619,
      "max": [
        0.9946686625480652,
        0.9999036192893982,
        0.9677106142044067
      ],
      "min": [
        -0.9988141059875488,
        -0.9995625019073486,
        -0.9992490410804749
      ],
      "type": "VEC3"
    },
    {
      "bufferView": 3,
      "byteOffset": 40032,
      "componentType": 5126,
      "count": 2619,
      "max": [
        0.9999696612358093,
        0.9999650716781616,
        0.9995172023773193,
        1.0
      ],
      "min": [
        -0.9877724647521973,
        -0.7527109980583191,
        -0.9491219520568848,
        -1.0
      ],
      "type": "VEC4"
    },
    {
      "bufferView": 1,
      "byteOffset": 20280,
      "componentType": 5126,
      "count": 2619,
      "max": [
        0.9998736381530762,
        0.9909486770629883
      ],
      "min": [
        0.47667786478996277,
        0.00019130225700791925
      ],
      "type": "VEC2"
    },
    {
      "bufferView": 0,
      "byteOffset": 58260,
      "componentType": 5125,
      "count": 14943,
      "type": "SCALAR"
    },
    {
      "bufferView": 2,
      "byteOffset": 123696,
      "componentType": 5126,
      "count": 2437,
      "max": [
        0.22115401923656464,
        0.2301483005285263,
        0.6175987720489502
      ],
      "min": [
        -0.24634844064712524,
        -0.23884008824825287,
        0.42195048928260803
      ],
      "type": "VEC3"
    },
    {
      "bufferView": 2,
      "byteOffset": 152940,
      "componentType": 5126,
      "count": 2437,
      "max": [
        0.9983417987823486,
        0.9978812336921692,
        0.9745481014251709
      ],
      "min": [
        -0.9992867112159729,
        -0.9999857544898987,
        -0.9998884797096252
      ],
      "type": "VEC3"
    },
    {
      "bufferView": 3,
      "byteOffset": 81936,
      "componentType": 5126,
      "count": 2437,
      "max": [
        0.9982329607009888,
        0.9965410828590393,
        0.9984875321388245,
        1.0
      ],
      "min": [
        -0.9487859010696411,
        -0.8009787201881409,
        -0.9353129267692566,
        1.0
      ],
      "type": "VEC4"
    },
    {
      "bufferView": 1,
      "byteOffset": 41232,
      "componentType": 5126,
      "count": 2437,
      "max": [
        0.5335159301757812,
        0.9986382722854614
      ],
      "min": [
        0.00017319119069725275,
        0.0001537799835205078
      ],
      "type": "VEC2"
    },
    {
      "bufferView": 0,
      "byteOffset": 118032,
      "componentType": 5125,
      "count": 14025,
      "type": "SCALAR"
    },
    {
      "bufferView": 2,
      "byteOffset": 182184,
      "componentType": 5126,
      "count": 4404,
      "max": [
        0.04437291622161865,
        0.05438586324453354,
        0.036919496953487396
      ],
      "min": [
        -0.03404773771762848,
        -0.03622813522815704,
        -0.03735050559043884
      ],
      "type": "VEC3"
    },
    {
      "bufferView": 2,
      "byteOffset": 235032,
      "componentType": 5126,
      "count": 4404,
      "max": [
        0.9997844696044922,
        0.9999904036521912,
        0.9999439120292664
      ],
      "min": [
        -0.9999896287918091,
        -0.9998594522476196,
        -0.9997745156288147
      ],
      "type": "VEC3"
    },
    {
      "bufferView": 3,
      "byteOffset": 120928,
      "componentType": 5126,
      "count": 4404,
      "max": [
        1.0,
        0.9983322620391846,
        0.9966849088668823,
        1.0
      ],
      "min": [
        -0.999993085861206,
        -0.9991040825843811,
        -0.9984064698219299,
        -1.0
      ],
      "type": "VEC4"
    },
    {
      "bufferView": 1,
      "byteOffset": 60728,
      "componentType": 5126,
      "count": 4404,
      "max": [
        0.9998845458030701,
        0.9998870491981506
      ],
      "min": [
        0.0009915106929838657,
        0.025574199855327606
      ],
      "type": "VEC2"
    },
    {
      "bufferView": 0,
      "byteOffset": 174132,
      "componentType": 5125,
      "count": 13668,
      "type": "SCALAR"
    },
    {
      "bufferView": 2,
      "byteOffset": 287880,
      "componentType": 5126,
      "count": 4368,
      "max": [
        0.16791017353534698,
        0.38693803548812866,
        0.3744566738605499
      ],
      "min": [
        -1.992435097694397,
        -0.3619709610939026,
        -0.3744565546512604
      ],
      "type": "VEC3"
    },
    {
      "bufferView": 2,
      "byteOffset": 340296,
      "componentType": 5126,
      "count": 4368,
      "max": [
        0.7933076024055481,
        1.0,
        0.9999984502792358
      ],
      "min": [
        -0.986306369304657,
        -1.0,
        -0.9999984502792358
      ],
      "type": "VEC3"
    },
    {
      "bufferView": 0,
      "byteOffset": 228804,
      "componentType": 5125,
      "count": 25920,
      "type": "SCALAR"
    },
    {
      "bufferView": 2,
      "byteOffset": 392712,
      "componentType": 5126,
      "count": 228,
      "max": [
        0.18088993430137634,
        0.025331376120448112,
        0.02156182751059532
      ],
      "min": [
        0.02838580310344696,
        -0.01648111827671528,
        -0.018800627440214157
      ],
      "type": "VEC3"
    },
    {
      "bufferView": 2,
      "byteOffset": 395448,
      "componentType": 5126,
      "count": 228,
      "max": [
        0.9993510246276855,
        0.9642362594604492,
        0.9950491786003113
      ],
      "min": [
        -0.9997844099998474,
        -0.9458942413330078,
        -0.9939231276512146
      ],
      "type": "VEC3"
    },
    {
      "bufferView": 1,
      "byteOffset": 95960,
      "componentType": 5126,
      "count": 228,
      "max": [
        0.8395622372627258,
        0.30251526832580566
      ],
      "min": [
        0.8029710650444031,
        0.15446452796459198
      ],
      "type": "VEC2"
    },
    {
      "bufferView": 0,
      "byteOffset": 332484,
      "componentType": 5125,
      "count": 1344,
      "type": "SCALAR"
    },
    {
      "bufferView": 2,
      "byteOffset": 398184,
      "componentType": 5126,
      "count": 298,
      "max": [
        -0.0018150517717003822,
        0.017198553308844566,
        0.014879606664180756
      ],
      "min": [
        -0.045176535844802856,
        -0.01641513593494892,
        -0.020520508289337158
      ],
      "type": "VEC3"
    },
    {
      "bufferView": 2,
      "byteOffset": 401760,
      "componentType": 5126,
      "count": 298,
      "max": [
        0.801550030708313,
        0.9985357522964478,
        0.9898207783699036
      ],
      "min": [
        -0.9988483786582947,
        -0.9986921548843384,
        -0.9764554500579834
      ],
      "type": "VEC3"
    },
    {
      "bufferView": 1,
      "byteOffset": 97784,
      "componentType": 5126,
      "count": 298,
      "max": [
        0.8357811570167542,
        0.19732485711574554
      ],
      "min": [
        0.8038954138755798,
        0.15431563556194305
      ],
      "type": "VEC2"
    },
    {
      "bufferView": 0,
      "byteOffset": 337860,
      "componentType": 5125,
      "count": 1551,
      "type": "SCALAR"
    },
    {
      "bufferView": 2,
      "byteOffset": 405336,
      "componentType": 5126,
      "count": 241,
      "max": [
        0.005835522897541523,
        0.015080084092915058,
        0.018374396488070488
      ],
      "min": [
        -0.005798893515020609,
        -0.016222799196839333,
        -0.006684328429400921
      ],
      "type": "VEC3"
    },
    {
      "bufferView": 2,
      "byteOffset": 408228,
      "componentType": 5126,
      "count": 241,
      "max": [
        0.9981439709663391,
        0.9995858669281006,
        0.9999501705169678
      ],
      "min": [
        -0.9995487928390503,
        -0.9929792284965515,
        -0.6830140352249146
      ],
      "type": "VEC3"
    },
    {
      "bufferView": 1,
      "byteOffset": 100168,
      "componentType": 5126,
      "count": 241,
      "max": [
        0.9525837898254395,
        0.9719561338424683
      ],
      "min": [
        0.1475169062614441,
        0.02312883734703064
      ],
      "type": "VEC2"
    },
    {
      "bufferView": 0,
      "byteOffset": 344064,
      "componentType": 5125,
      "count": 1350,
      "type": "SCALAR"
    },
    {
      "bufferView": 2,
      "byteOffset": 411120,
      "componentType": 5126,
      "count": 241,
      "max": [
        0.005835522897541523,
        0.015080084092915058,
        0.018374396488070488
      ],
      "min": [
        -0.005798893515020609,
        -0.016222799196839333,
        -0.006684328429400921
      ],
      "type": "VEC3"
    },
    {
      "bufferView": 2,
      "byteOffset": 414012,
      "componentType": 5126,
      "count": 241,
      "max": [
        0.9981439709663391,
        0.9995858669281006,
        0.9999501705169678
      ],
      "min": [
        -0.9995487928390503,
        -0.9929792284965515,
        -0.6830140352249146
      ],
      "type": "VEC3"
    },
    {
      "bufferView": 1,
      "byteOffset": 102096,
      "componentType": 5126,
      "count": 241,
      "max": [
        0.8839490413665771,
        0.9801711440086365
      ],
      "min": [
        0.1313096284866333,
        0.03597106412053108
      ],
      "type": "VEC2"
    },
    {
      "bufferView": 0,
      "byteOffset": 349464,
      "componentType": 5125,
      "count": 1350,
      "type": "SCALAR"
    },
    {
      "bufferView": 2,
      "byteOffset": 416904,
      "componentType": 5126,
      "count": 270,
      "max": [
        0.010848522186279297,
        0.047454364597797394,
        0.011576037853956223
      ],
      "min": [
        -0.012477666139602661,
        -0.0003999769687652588,
        -0.01172719057649374
      ],
      "type": "VEC3"
    },
    {
      "bufferView": 2,
      "byteOffset": 420144,
      "componentType": 5126,
      "count": 270,
      "max": [
        0.9968478083610535,
        0.9859015345573425,
        0.9980696439743042
      ],
      "min": [
        -0.9999884366989136,
        -0.9996278882026672,
        -0.9998667240142822
      ],
      "type": "VEC3"
    },
    {
      "bufferView": 3,
      "byteOffset": 191392,
      "componentType": 5126,
      "count": 270,
      "max": [
        0.9998261332511902,
        0.9998329877853394,
        0.9929549098014832,
        1.0
      ],
      "min": [
        -0.9928469061851501,
        -0.9945353865623474,
        -0.9980157613754272,
        -1.0
      ],
      "type": "VEC4"
    },
    {
      "bufferView": 1,
      "byteOffset": 104024,
      "componentType": 5126,
      "count": 270,
      "max": [
        0.9996093511581421,
        0.9997555613517761
      ],
      "min": [
        0.015775766223669052,
        0.06157964840531349
      ],
      "type": "VEC2"
    },
    {
      "bufferView": 0,
      "byteOffset": 354864,
      "componentType": 5125,
      "count": 810,
      "type": "SCALAR"
    },
    {
      "bufferView": 2,
      "byteOffset": 423384,
      "componentType": 5126,
      "count": 289,
      "max": [
        0.01066368818283081,
        0.05766359716653824,
        0.011563166975975037
      ],
      "min": [
        -0.01253470778465271,
        -0.0017701350152492523,
        -0.011661414057016373
      ],
      "type": "VEC3"
    },
    {
      "bufferView": 2,
      "byteOffset": 426852,
      "componentType": 5126,
      "count": 289,
      "max": [
        0.9988810420036316,
        0.9982566237449646,
        0.9996415376663208
      ],
      "min": [
        -0.9963467717170715,
        -0.9988594055175781,
        -0.9923416972160339
      ],
      "type": "VEC3"
    },
    {
      "bufferView": 3,
      "byteOffset": 195712,
      "componentType": 5126,
      "count": 289,
      "max": [
        0.9924775958061218,
        0.999351978302002,
        0.9985119700431824,
        1.0
      ],
      "min": [
        -0.9993672966957092,
        -0.9999064803123474,
        -0.996503472328186,
        -1.0
      ],
      "type": "VEC4"
    },
    {
      "bufferView": 1,
      "byteOffset": 106184,
      "componentType": 5126,
      "count": 289,
      "max": [
        0.9978942275047302,
        0.9995685815811157
      ],
      "min": [
        0.08890395611524582,
        0.4124522805213928
      ],
      "type": "VEC2"
    },
    {
      "bufferView": 0,
      "byteOffset": 358104,
      "componentType": 5125,
      "count": 909,
      "type": "SCALAR"
    },
    {
      "bufferView": 2,
      "byteOffset": 430320,
      "componentType": 5126,
      "count": 9484,
      "max": [
        0.17593850195407867,
        -0.12306581437587738,
        0.34510594606399536
      ],
      "min": [
        -0.22192218899726868,
        -0.5273473858833313,
        -0.10294203460216522
      ],
      "type": "VEC3"
    },
    {
      "bufferView": 2,
      "byteOffset": 544128,
      "componentType": 5126,
      "count": 9484,
      "max": [
        0.9998358488082886,
        0.9987730979919434,
        0.999997615814209
      ],
      "min": [
        -0.9991902709007263,
        -0.9997994303703308,
        -0.9954979419708252
      ],
      "type": "VEC3"
    },
    {
      "bufferView": 3,
      "byteOffset": 200336,
      "componentType": 5126,
      "count": 9484,
      "max": [
        0.9997073411941528,
        0.9997518062591553,
        0.9998905658721924,
        1.0
      ],
      "min": [
        -0.9996362924575806,
        -0.9999980330467224,
        -0.9999188780784607,
        -1.0
      ],
      "type": "VEC4"
    },
    {
      "bufferView": 1,
      "byteOffset": 108496,
      "componentType": 5126,
      "count": 9484,
      "max": [
        0.9999359250068665,
        0.9997203350067139
      ],
      "min": [
        0.0029856355395168066,
        0.0001938230125233531
      ],
      "type": "VEC2"
    },
    {
      "bufferView": 0,
      "byteOffset": 361740,
      "componentType": 5125,
      "count": 37488,
      "type": "SCALAR"
    },
    {
      "bufferView": 2,
      "byteOffset": 657936,
      "componentType": 5126,
      "count": 4357,
      "max": [
        0.10767444968223572,
        0.09970620274543762,
        0.05502814054489136
      ],
      "min": [
        -0.10059253871440887,
        -0.10554179549217224,
        -0.1184246689081192
      ],
      "type": "VEC3"
    },
    {
      "bufferView": 2,
      "byteOffset": 710220,
      "componentType": 5126,
      "count": 4357,
      "max": [
        0.9999752044677734,
        0.9999482035636902,
        0.9999789595603943
      ],
      "min": [
        -0.9999847412109375,
        -0.9999929666519165,
        -0.9998141527175903
      ],
      "type": "VEC3"
    },
    {
      "bufferView": 3,
      "byteOffset": 352080,
      "componentType": 5126,
      "count": 4357,
      "max": [
        0.9999129772186279,
        0.9997759461402893,
        0.9997527599334717,
        1.0
      ],
      "min": [
        -0.9997230768203735,
        -0.9997450113296509,
        -0.9999715685844421,
        -1.0
      ],
      "type": "VEC4"
    },
    {
      "bufferView": 1,
      "byteOffset": 184368,
      "componentType": 5126,
      "count": 4357,
      "max": [
        0.9999691843986511,
        0.9998520016670227
      ],
      "min": [
        5.9269703342579305e-05,
        0.00038782626506872475
      ],
      "type": "VEC2"
    },
    {
      "bufferView": 0,
      "byteOffset": 511692,
      "componentType": 5125,
      "count": 15120,
      "type": "SCALAR"
    },
    {
      "bufferView": 2,
      "byteOffset": 762504,
      "componentType": 5126,
      "count": 281,
      "max": [
        0.9999994039535522,
        1.0,
        1.195753574371338
      ],
      "min": [
        -0.9999994039535522,
        -0.9999989867210388,
        -2.152099370956421
      ],
      "type": "VEC3"
    },
    {
      "bufferView": 2,
      "byteOffset": 765876,
      "componentType": 5126,
      "count": 281,
      "max": [
        0.9993213415145874,
        1.0,
        1.0
      ],
      "min": [
        -0.9993213415145874,
        -1.0,
        -0.8386297821998596
      ],
      "type": "VEC3"
    },
    {
      "bufferView": 1,
      "byteOffset": 219224,
      "componentType": 5126,
      "count": 281,
      "max": [
        1.0,
        1.0
      ],
      "min": [
        -8.940696716308594e-08,
        0.0
      ],
      "type": "VEC2"
    },
    {
      "bufferView": 0,
      "byteOffset": 572172,
      "componentType": 5125,
      "count": 1188,
      "type": "SCALAR"
    },
    {
      "bufferView": 2,
      "byteOffset": 769248,
      "componentType": 5126,
      "count": 90,
      "max": [
        0.8691548109054565,
        1.0,
        1.0
      ],
      "min": [
        -0.8691549301147461,
        -1.0,
        -2.9315381050109863
      ],
      "type": "VEC3"
    },
    {
      "bufferView": 2,
      "byteOffset": 770328,
      "componentType": 5126,
      "count": 90,
      "max": [
        1.0,
        0.9197126626968384,
        0.0
      ],
      "min": [
        -1.0,
        -0.9197126626968384,
        -1.0
      ],
      "type": "VEC3"
    },
    {
      "bufferView": 1,
      "byteOffset": 221472,
      "componentType": 5126,
      "count": 90,
      "max": [
        0.9624574780464172,
        0.9748651385307312
      ],
      "min": [
        0.0251348614692688,
        0.025134921073913574
      ],
      "type": "VEC2"
    },
    {
      "bufferView": 0,
      "byteOffset": 576924,
      "componentType": 5125,
      "count": 126,
      "type": "SCALAR"
    },
    {
      "bufferView": 2,
      "byteOffset": 771408,
      "componentType": 5126,
      "count": 281,
      "max": [
        0.9999994039535522,
        1.0,
        1.195753574371338
      ],
      "min": [
        -0.9999994039535522,
        -0.9999989867210388,
        -2.152099370956421
      ],
      "type": "VEC3"
    },
    {
      "bufferView": 2,
      "byteOffset": 774780,
      "componentType": 5126,
      "count": 281,
      "max": [
        0.9993213415145874,
        1.0,
        1.0
      ],
      "min": [
        -0.9993213415145874,
        -1.0,
        -0.8386297821998596
      ],
      "type": "VEC3"
    },
    {
      "bufferView": 1,
      "byteOffset": 222192,
      "componentType": 5126,
      "count": 281,
      "max": [
        1.0,
        1.0
      ],
      "min": [
        -8.940696716308594e-08,
        0.0
      ],
      "type": "VEC2"
    },
    {
      "bufferView": 0,
      "byteOffset": 577428,
      "componentType": 5125,
      "count": 1188,
      "type": "SCALAR"
    },
    {
      "bufferView": 2,
      "byteOffset": 778152,
      "componentType": 5126,
      "count": 90,
      "max": [
        0.8691548109054565,
        1.0,
        1.0
      ],
      "min": [
        -0.8691549301147461,
        -1.0,
        -2.9315381050109863
      ],
      "type": "VEC3"
    },
    {
      "bufferView": 2,
      "byteOffset": 779232,
      "componentType": 5126,
      "count": 90,
      "max": [
        1.0,
        0.9197126626968384,
        0.0
      ],
      "min": [
        -1.0,
        -0.9197126626968384,
        -1.0
      ],
      "type": "VEC3"
    },
    {
      "bufferView": 1,
      "byteOffset": 224440,
      "componentType": 5126,
      "count": 90,
      "max": [
        0.9624574780464172,
        0.9748651385307312
      ],
      "min": [
        0.0251348614692688,
        0.025134921073913574
      ],
      "type": "VEC2"
    },
    {
      "bufferView": 0,
      "byteOffset": 582180,
      "componentType": 5125,
      "count": 126,
      "type": "SCALAR"
    },
    {
      "bufferView": 2,
      "byteOffset": 780312,
      "componentType": 5126,
      "count": 281,
      "max": [
        0.9999994039535522,
        1.0,
        1.195753574371338
      ],
      "min": [
        -0.9999994039535522,
        -0.9999989867210388,
        -2.152099370956421
      ],
      "type": "VEC3"
    },
    {
      "bufferView": 2,
      "byteOffset": 783684,
      "componentType": 5126,
      "count": 281,
      "max": [
        0.9993213415145874,
        1.0,
        1.0
      ],
      "min": [
        -0.9993213415145874,
        -1.0,
        -0.8386297821998596
      ],
      "type": "VEC3"
    },
    {
      "bufferView": 1,
      "byteOffset": 225160,
      "componentType": 5126,
      "count": 281,
      "max": [
        1.0,
        1.0
      ],
      "min": [
        -8.940696716308594e-08,
        0.0
      ],
      "type": "VEC2"
    },
    {
      "bufferView": 0,
      "byteOffset": 582684,
      "componentType": 5125,
      "count": 1188,
      "type": "SCALAR"
    },
    {
      "bufferView": 2,
      "byteOffset": 787056,
      "componentType": 5126,
      "count": 90,
      "max": [
        0.8691548109054565,
        1.0,
        1.0
      ],
      "min": [
        -0.8691549301147461,
        -1.0,
        -2.9315381050109863
      ],
      "type": "VEC3"
    },
    {
      "bufferView": 2,
      "byteOffset": 788136,
      "componentType": 5126,
      "count": 90,
      "max": [
        1.0,
        0.9197126626968384,
        0.0
      ],
      "min": [
        -1.0,
        -0.9197126626968384,
        -1.0
      ],
      "type": "VEC3"
    },
    {
      "bufferView": 1,
      "byteOffset": 227408,
      "componentType": 5126,
      "count": 90,
      "max": [
        0.9624574780464172,
        0.9748651385307312
      ],
      "min": [
        0.0251348614692688,
        0.025134921073913574
      ],
      "type": "VEC2"
    },
    {
      "bufferView": 0,
      "byteOffset": 587436,
      "componentType": 5125,
      "count": 126,
      "type": "SCALAR"
    },
    {
      "bufferView": 2,
      "byteOffset": 789216,
      "componentType": 5126,
      "count": 9189,
      "max": [
        0.0600891076028347,
        0.046154316514730453,
        0.028937216848134995
      ],
      "min": [
        -0.056540895253419876,
        -0.05221668258309364,
        -0.03747878596186638
      ],
      "type": "VEC3"
    },
    {
      "bufferView": 2,
      "byteOffset": 899484,
      "componentType": 5126,
      "count": 9189,
      "max": [
        0.9997859597206116,
        0.9999623894691467,
        0.9999536871910095
      ],
      "min": [
        -0.9994993209838867,
        -0.999485433101654,
        -0.9996204972267151
      ],
      "type": "VEC3"
    },
    {
      "bufferView": 3,
      "byteOffset": 421792,
      "componentType": 5126,
      "count": 9189,
      "max": [
        0.9997020959854126,
        0.9987598657608032,
        0.9999516606330872,
        1.0
      ],
      "min": [
        -0.9996739625930786,
        -0.9982877969741821,
        -0.9999318718910217,
        -1.0
      ],
      "type": "VEC4"
    },
    {
      "bufferView": 1,
      "byteOffset": 228128,
      "componentType": 5126,
      "count": 9189,
      "max": [
        0.8671159744262695,
        0.8186280131340027
      ],
      "min": [
        0.02559296041727066,
        0.3686601221561432
      ],
      "type": "VEC2"
    },
    {
      "bufferView": 0,
      "byteOffset": 587940,
      "componentType": 5125,
      "count": 30888,
      "type": "SCALAR"
    },
    {
      "bufferView": 4,
      "componentType": 5126,
      "count": 11,
      "max": [
        1.0,
        0.0,
        0.0,
        0.0,
        0.0,
        1.0,
        0.0,
        0.0,
        0.0,
        0.0,
        1.0,
        0.0,
        0.0,
        0.0,
        0.0,
        1.0
      ],
      "min": [
        1.0,
        0.0,
        0.0,
        0.0,
        0.0,
        1.0,
        0.0,
        0.0,
        0.0,
        0.0,
        1.0,
        0.0,
        0.0,
        0.0,
        0.0,
        1.0
      ],
      "type": "MAT4"
    }
  ],
  "asset": {
    "extras": {
      "credit": "Cleveland Museum of Art, 2018.281, CC0; Dale Utt scan",
      "changes": "Active-node selection only: omit ground, oil apparatus, duplicate shade shells. Geometry and UV unchanged."
    },
    "generator": "Sketchfab-12.68.0",
    "version": "2.0"
  },
  "bufferViews": [
    {
      "buffer": 0,
      "byteLength": 711492,
      "name": "floatBufferViews",
      "target": 34963
    },
    {
      "buffer": 0,
      "byteLength": 301640,
      "byteOffset": 711492,
      "byteStride": 8,
      "name": "floatBufferViews",
      "target": 34962
    },
    {
      "buffer": 0,
      "byteLength": 1009752,
      "byteOffset": 1013132,
      "byteStride": 12,
      "name": "floatBufferViews",
      "target": 34962
    },
    {
      "buffer": 0,
      "byteLength": 568816,
      "byteOffset": 2022884,
      "byteStride": 16,
      "name": "floatBufferViews",
      "target": 34962
    },
    {
      "buffer": 0,
      "byteLength": 704,
      "byteOffset": 2591700,
      "name": "floatBufferViews"
    }
  ],
  "buffers": [
    {
      "byteLength": 2592404,
      "uri": "../../assets/sketchfab/peacock_table_lamp/scene.bin"
    }
  ],
  "extensionsUsed": [
    "KHR_materials_transmission"
  ],
  "images": [
    {
      "uri": "../../assets/sketchfab/peacock_table_lamp/textures/Ground_Mat_baseColor.png"
    },
    {
      "uri": "../../assets/sketchfab/peacock_table_lamp/textures/Shade_baseColor.png"
    },
    {
      "uri": "../../assets/sketchfab/peacock_table_lamp/textures/Shade_metallicRoughness.png"
    },
    {
      "uri": "../../assets/sketchfab/peacock_table_lamp/textures/Shade_emissive.jpeg"
    },
    {
      "uri": "../../assets/sketchfab/peacock_table_lamp/textures/Shade_normal.png"
    },
    {
      "uri": "../../assets/sketchfab/peacock_table_lamp/textures/Shade_transmission.png"
    },
    {
      "uri": "../../assets/sketchfab/peacock_table_lamp/textures/Inner_baseColor.jpeg"
    },
    {
      "uri": "../../assets/sketchfab/peacock_table_lamp/textures/Inner_normal.jpeg"
    },
    {
      "uri": "../../assets/sketchfab/peacock_table_lamp/textures/Shell_baseColor.png"
    },
    {
      "uri": "../../assets/sketchfab/peacock_table_lamp/textures/Shell_metallicRoughness.png"
    },
    {
      "uri": "../../assets/sketchfab/peacock_table_lamp/textures/Lamp_Material_baseColor.jpeg"
    },
    {
      "uri": "../../assets/sketchfab/peacock_table_lamp/textures/Lamp_Material_metallicRoughness.png"
    },
    {
      "uri": "../../assets/sketchfab/peacock_table_lamp/textures/Lamp_Material_normal.jpeg"
    },
    {
      "uri": "../../assets/sketchfab/peacock_table_lamp/textures/Wick_metallicRoughness.png"
    },
    {
      "uri": "../../assets/sketchfab/peacock_table_lamp/textures/Flame_baseColor.png"
    },
    {
      "uri": "../../assets/sketchfab/peacock_table_lamp/textures/Flame_emissive.png"
    },
    {
      "uri": "../../assets/sketchfab/peacock_table_lamp/textures/Filament_Material_baseColor.png"
    },
    {
      "uri": "../../assets/sketchfab/peacock_table_lamp/textures/Filament_Material_emissive.png"
    }
  ],
  "materials": [
    {
      "alphaMode": "BLEND",
      "doubleSided": true,
      "name": "Ground_Mat",
      "pbrMetallicRoughness": {
        "baseColorFactor": [
          0.02155139851120283,
          0.02155139851120283,
          0.02155139851120283,
          1.0
        ],
        "baseColorTexture": {
          "index": 0
        },
        "metallicFactor": 0.0,
        "roughnessFactor": 0.8211145618
      }
    },
    {
      "alphaMode": "BLEND",
      "emissiveFactor": [
        1.0,
        1.0,
        1.0
      ],
      "emissiveTexture": {
        "index": 3
      },
      "extensions": {
        "KHR_materials_transmission": {
          "transmissionFactor": 1.0,
          "transmissionTexture": {
            "index": 5
          }
        }
      },
      "name": "Shade",
      "normalTexture": {
        "index": 4
      },
      "pbrMetallicRoughness": {
        "baseColorTexture": {
          "index": 1
        },
        "metallicFactor": 0.0,
        "metallicRoughnessTexture": {
          "index": 2
        }
      }
    },
    {
      "name": "Inner",
      "normalTexture": {
        "index": 7
      },
      "pbrMetallicRoughness": {
        "baseColorTexture": {
          "index": 6
        },
        "metallicFactor": 0.0,
        "metallicRoughnessTexture": {
          "index": 2
        }
      }
    },
    {
      "alphaMode": "BLEND",
      "emissiveFactor": [
        0.1436063179,
        0.1436063179,
        0.1436063179
      ],
      "emissiveTexture": {
        "index": 3
      },
      "name": "Shell",
      "normalTexture": {
        "index": 7
      },
      "pbrMetallicRoughness": {
        "baseColorTexture": {
          "index": 8
        },
        "metallicFactor": 0.0,
        "metallicRoughnessTexture": {
          "index": 9
        }
      }
    },
    {
      "doubleSided": true,
      "name": "Lamp_Material",
      "normalTexture": {
        "index": 12
      },
      "pbrMetallicRoughness": {
        "baseColorTexture": {
          "index": 10
        },
        "metallicRoughnessTexture": {
          "index": 11
        }
      }
    },
    {
      "alphaMode": "BLEND",
      "doubleSided": true,
      "extensions": {
        "KHR_materials_transmission": {
          "transmissionFactor": 0.9604821355
        }
      },
      "name": "Chimney",
      "pbrMetallicRoughness": {
        "baseColorFactor": [
          0.0,
          0.0,
          0.0,
          0.25
        ],
        "metallicFactor": 0.0,
        "roughnessFactor": 0.10513622355910968
      }
    },
    {
      "doubleSided": true,
      "name": "Wick",
      "pbrMetallicRoughness": {
        "baseColorTexture": {
          "index": 10
        },
        "metallicFactor": 0.0,
        "metallicRoughnessTexture": {
          "index": 13
        }
      }
    },
    {
      "alphaMode": "BLEND",
      "doubleSided": true,
      "emissiveFactor": [
        1.0,
        1.0,
        1.0
      ],
      "emissiveTexture": {
        "index": 15
      },
      "name": "Flame",
      "pbrMetallicRoughness": {
        "baseColorFactor": [
          1.0,
          1.0,
          1.0,
          0.127568179
        ],
        "baseColorTexture": {
          "index": 14
        },
        "metallicFactor": 0.0,
        "roughnessFactor": 0.8211145618
      }
    },
    {
      "alphaMode": "BLEND",
      "doubleSided": true,
      "emissiveFactor": [
        1.0,
        1.0,
        1.0
      ],
      "name": "Bulb_Glass",
      "pbrMetallicRoughness": {
        "baseColorFactor": [
          0.0,
          0.0,
          0.0,
          0.2407757261
        ],
        "metallicFactor": 0.0,
        "roughnessFactor": 0.09884691540000001
      }
    },
    {
      "alphaMode": "BLEND",
      "doubleSided": true,
      "emissiveFactor": [
        1.0,
        1.0,
        1.0
      ],
      "emissiveTexture": {
        "index": 17
      },
      "name": "Filament_Material",
      "pbrMetallicRoughness": {
        "baseColorTexture": {
          "index": 16
        },
        "metallicFactor": 0.0,
        "roughnessFactor": 0.8211145618
      }
    }
  ],
  "meshes": [
    {
      "name": "Ground_Ground Mat_0",
      "primitives": [
        {
          "attributes": {
            "NORMAL": 1,
            "POSITION": 0,
            "TEXCOORD_0": 2
          },
          "indices": 3,
          "material": 0,
          "mode": 4
        }
      ]
    },
    {
      "name": "Shade_Shade_0",
      "primitives": [
        {
          "attributes": {
            "NORMAL": 5,
            "POSITION": 4,
            "TANGENT": 6,
            "TEXCOORD_0": 7
          },
          "indices": 8,
          "material": 1,
          "mode": 4
        }
      ]
    },
    {
      "name": "Shade Inner_Inner_0",
      "primitives": [
        {
          "attributes": {
            "NORMAL": 10,
            "POSITION": 9,
            "TANGENT": 11,
            "TEXCOORD_0": 12
          },
          "indices": 13,
          "material": 2,
          "mode": 4
        }
      ]
    },
    {
      "name": "Shade Shell_Shell_0",
      "primitives": [
        {
          "attributes": {
            "NORMAL": 15,
            "POSITION": 14,
            "TANGENT": 16,
            "TEXCOORD_0": 17
          },
          "indices": 18,
          "material": 3,
          "mode": 4
        }
      ]
    },
    {
      "name": "Oil_Lamp Material_0",
      "primitives": [
        {
          "attributes": {
            "NORMAL": 20,
            "POSITION": 19,
            "TANGENT": 21,
            "TEXCOORD_0": 22
          },
          "indices": 23,
          "material": 4,
          "mode": 4
        }
      ]
    },
    {
      "name": "Chimney_Chimney_0",
      "primitives": [
        {
          "attributes": {
            "NORMAL": 25,
            "POSITION": 24
          },
          "indices": 26,
          "material": 5,
          "mode": 4
        }
      ]
    },
    {
      "name": "Wick_Wick_0",
      "primitives": [
        {
          "attributes": {
            "NORMAL": 28,
            "POSITION": 27,
            "TEXCOORD_0": 29
          },
          "indices": 30,
          "material": 6,
          "mode": 4
        }
      ]
    },
    {
      "name": "Top Wick_Wick_0",
      "primitives": [
        {
          "attributes": {
            "NORMAL": 32,
            "POSITION": 31,
            "TEXCOORD_0": 33
          },
          "indices": 34,
          "material": 6,
          "mode": 4
        }
      ]
    },
    {
      "name": "Flame 1_Flame_0",
      "primitives": [
        {
          "attributes": {
            "NORMAL": 36,
            "POSITION": 35,
            "TEXCOORD_0": 37
          },
          "indices": 38,
          "material": 7,
          "mode": 4
        }
      ]
    },
    {
      "name": "Flame 2_Flame_0",
      "primitives": [
        {
          "attributes": {
            "NORMAL": 40,
            "POSITION": 39,
            "TEXCOORD_0": 41
          },
          "indices": 42,
          "material": 7,
          "mode": 4
        }
      ]
    },
    {
      "name": "Knob 1_Lamp Material_0",
      "primitives": [
        {
          "attributes": {
            "NORMAL": 44,
            "POSITION": 43,
            "TANGENT": 45,
            "TEXCOORD_0": 46
          },
          "indices": 47,
          "material": 4,
          "mode": 4
        }
      ]
    },
    {
      "name": "Knob 2_Lamp Material_0",
      "primitives": [
        {
          "attributes": {
            "NORMAL": 49,
            "POSITION": 48,
            "TANGENT": 50,
            "TEXCOORD_0": 51
          },
          "indices": 52,
          "material": 4,
          "mode": 4
        }
      ]
    },
    {
      "name": "Lamp_Lamp Material_0",
      "primitives": [
        {
          "attributes": {
            "NORMAL": 54,
            "POSITION": 53,
            "TANGENT": 55,
            "TEXCOORD_0": 56
          },
          "indices": 57,
          "material": 4,
          "mode": 4
        }
      ]
    },
    {
      "name": "Electric_Lamp Material_0",
      "primitives": [
        {
          "attributes": {
            "NORMAL": 59,
            "POSITION": 58,
            "TANGENT": 60,
            "TEXCOORD_0": 61
          },
          "indices": 62,
          "material": 4,
          "mode": 4
        }
      ]
    },
    {
      "name": "Bulb Glass_Bulb Glass_0",
      "primitives": [
        {
          "attributes": {
            "NORMAL": 64,
            "POSITION": 63,
            "TEXCOORD_0": 65
          },
          "indices": 66,
          "material": 8,
          "mode": 4
        }
      ]
    },
    {
      "name": "Filament Ferrule_Filament Material_0",
      "primitives": [
        {
          "attributes": {
            "NORMAL": 68,
            "POSITION": 67,
            "TEXCOORD_0": 69
          },
          "indices": 70,
          "material": 9,
          "mode": 4
        }
      ]
    },
    {
      "name": "Bulb Glass.001_Bulb Glass_0",
      "primitives": [
        {
          "attributes": {
            "NORMAL": 72,
            "POSITION": 71,
            "TEXCOORD_0": 73
          },
          "indices": 74,
          "material": 8,
          "mode": 4
        }
      ]
    },
    {
      "name": "Filament Ferrule.001_Filament Material_0",
      "primitives": [
        {
          "attributes": {
            "NORMAL": 76,
            "POSITION": 75,
            "TEXCOORD_0": 77
          },
          "indices": 78,
          "material": 9,
          "mode": 4
        }
      ]
    },
    {
      "name": "Bulb Glass.002_Bulb Glass_0",
      "primitives": [
        {
          "attributes": {
            "NORMAL": 80,
            "POSITION": 79,
            "TEXCOORD_0": 81
          },
          "indices": 82,
          "material": 8,
          "mode": 4
        }
      ]
    },
    {
      "name": "Filament Ferrule.002_Filament Material_0",
      "primitives": [
        {
          "attributes": {
            "NORMAL": 84,
            "POSITION": 83,
            "TEXCOORD_0": 85
          },
          "indices": 86,
          "material": 9,
          "mode": 4
        }
      ]
    },
    {
      "name": "Finial Simple_Lamp Material_0",
      "primitives": [
        {
          "attributes": {
            "NORMAL": 88,
            "POSITION": 87,
            "TANGENT": 89,
            "TEXCOORD_0": 90
          },
          "indices": 91,
          "material": 4,
          "mode": 4
        }
      ]
    }
  ],
  "nodes": [
    {
      "children": [
        1
      ],
      "matrix": [
        1.3806835412979126,
        0.0,
        0.0,
        0.0,
        0.0,
        3.0657333145398815e-16,
        -1.3806835412979126,
        0.0,
        0.0,
        1.3806835412979126,
        3.0657333145398815e-16,
        0.0,
        0.0,
        0.0,
        0.0,
        1.0
      ],
      "name": "Sketchfab_model"
    },
    {
      "children": [
        2
      ],
      "matrix": [
        1.0,
        0.0,
        0.0,
        0.0,
        0.0,
        0.0,
        1.0,
        0.0,
        0.0,
        -1.0,
        0.0,
        0.0,
        0.0,
        0.0,
        0.0,
        1.0
      ],
      "name": "98acdafa84ec46fab971043fde2489db.fbx"
    },
    {
      "children": [
        3
      ],
      "name": "Object_2"
    },
    {
      "children": [
        6,
        57
      ],
      "name": "RootNode"
    },
    {
      "children": [
        5
      ],
      "name": "Ground",
      "rotation": [
        -0.7071068286895752,
        0.0,
        0.0,
        0.7071067094802856
      ],
      "scale": [
        100.0,
        100.0,
        100.0
      ],
      "translation": [
        0.0,
        -0.4176913797855377,
        0.0
      ]
    },
    {
      "mesh": 0,
      "name": "Ground_Ground Mat_0"
    },
    {
      "children": [
        7
      ],
      "name": "Armature",
      "rotation": [
        -0.7071068286895752,
        0.0,
        0.0,
        0.7071067094802856
      ],
      "scale": [
        37.75241470336914,
        37.75241470336914,
        37.75241470336914
      ]
    },
    {
      "children": [
        8,
        19,
        41,
        43
      ],
      "name": "Object_7"
    },
    {
      "children": [
        9,
        11,
        13,
        15,
        17
      ],
      "name": "_rootJoint"
    },
    {
      "children": [
        10
      ],
      "name": "Base_00",
      "rotation": [
        0.7071068286895752,
        0.0,
        0.0,
        0.7071067094802856
      ]
    },
    {
      "name": "Base_end_05",
      "translation": [
        0.0,
        1.0,
        0.0
      ]
    },
    {
      "children": [
        12
      ],
      "name": "Oil_01",
      "rotation": [
        0.15774476528167725,
        -0.7122275233268738,
        0.07673921436071396,
        0.6796761155128479
      ],
      "translation": [
        -0.8948196768760681,
        -0.16985070705413818,
        0.0773448497056961
      ]
    },
    {
      "name": "Oil_end_06",
      "rotation": [
        2.7755575615628914e-17,
        6.938893903907228e-18,
        -1.925929944387236e-34,
        1.0
      ],
      "translation": [
        -1.3877787807814457e-17,
        0.2231324017047882,
        -1.1102230246251565e-16
      ]
    },
    {
      "children": [
        14
      ],
      "name": "Electric_02",
      "rotation": [
        0.7071068286895752,
        0.0,
        0.0,
        0.7071067094802856
      ],
      "translation": [
        -0.009553356096148491,
        -0.014065131545066833,
        0.9758647084236145
      ]
    },
    {
      "name": "Electric_end_07",
      "translation": [
        0.0,
        0.26994937658309937,
        0.0
      ]
    },
    {
      "children": [
        16
      ],
      "name": "Shade_03",
      "rotation": [
        0.7071068286895752,
        0.0,
        0.0,
        0.7071067094802856
      ],
      "translation": [
        -0.01102718710899353,
        -0.008872924372553825,
        1.1100428104400635
      ]
    },
    {
      "name": "Shade_end_08",
      "translation": [
        0.0,
        0.5303049087524414,
        0.0
      ]
    },
    {
      "children": [
        18
      ],
      "name": "Finial_04",
      "rotation": [
        0.7071068286895752,
        0.0,
        0.0,
        0.7071067094802856
      ],
      "translation": [
        -0.03303723782300949,
        -0.015123847872018814,
        1.6003656387329102
      ]
    },
    {
      "name": "Finial_end_09",
      "translation": [
        0.0,
        0.09129476547241211,
        0.0
      ]
    },
    {
      "children": [
        20
      ],
      "name": "Shade",
      "rotation": [
        -9.992982291586741e-24,
        -0.0,
        0.0,
        1.0
      ],
      "scale": [
        2.648836851119995,
        2.648836851119995,
        2.648836851119995
      ],
      "translation": [
        -0.035339660942554474,
        -0.004803227260708809,
        1.3799036741256714
      ]
    },
    {
      "mesh": 1,
      "name": "Shade_Shade_0"
    },
    {
      "children": [
        22
      ],
      "name": "Shade Inner",
      "translation": [
        0.013341576792299747,
        0.001813334645703435,
        -0.5209470987319946
      ]
    },
    {
      "mesh": 2,
      "name": "Shade Inner_Inner_0"
    },
    {
      "children": [
        24
      ],
      "name": "Shade Shell",
      "translation": [
        0.013341576792299747,
        0.001813334645703435,
        -0.5209470987319946
      ]
    },
    {
      "mesh": 3,
      "name": "Shade Shell_Shell_0"
    },
    {
      "children": [
        26,
        27,
        29,
        31,
        37,
        39
      ],
      "name": "Oil",
      "rotation": [
        0.2913874387741089,
        -0.13309291005134583,
        -0.5635073781013489,
        0.7614718079566956
      ],
      "scale": [
        2.648836612701416,
        2.648836612701416,
        2.648836851119995
      ],
      "translation": [
        -0.9356212615966797,
        -0.05907732993364334,
        0.09141243994235992
      ]
    },
    {
      "mesh": 4,
      "name": "Oil_Lamp Material_0"
    },
    {
      "children": [
        28
      ],
      "name": "Chimney",
      "rotation": [
        -0.28439345955848694,
        -0.00995513517409563,
        0.002953292801976204,
        0.9586514234542847
      ],
      "scale": [
        0.1242997795343399,
        0.1242997869849205,
        0.1242997869849205
      ],
      "translation": [
        -0.01924540102481842,
        -0.0011199414730072021,
        0.0002184361219406128
      ]
    },
    {
      "mesh": 5,
      "name": "Chimney_Chimney_0"
    },
    {
      "children": [
        30
      ],
      "name": "Wick",
      "rotation": [
        -1.0356307029724121e-06,
        2.7939675462107516e-08,
        -3.166496398421259e-08,
        1.0
      ],
      "scale": [
        1.0000001192092896,
        1.0000001192092896,
        1.0
      ],
      "translation": [
        1.3877787807814457e-17,
        2.9802322387695312e-08,
        -1.4901161193847656e-08
      ]
    },
    {
      "mesh": 6,
      "name": "Wick_Wick_0"
    },
    {
      "children": [
        32,
        33,
        35
      ],
      "name": "Top Wick",
      "rotation": [
        -1.8551943412603578e-06,
        8.19563723553074e-08,
        -7.264314660915261e-08,
        1.0
      ],
      "scale": [
        1.000000238418579,
        1.0000001192092896,
        1.0000001192092896
      ],
      "translation": [
        7.450580596923828e-09,
        5.960464477539063e-08,
        2.9802322387695312e-08
      ]
    },
    {
      "mesh": 7,
      "name": "Top Wick_Wick_0"
    },
    {
      "children": [
        34
      ],
      "name": "Flame 1",
      "rotation": [
        -3.1554435666003195e-17,
        2.52435488636748e-17,
        7.965459206793873e-34,
        1.0
      ],
      "scale": [
        9.999999960041972e-13,
        9.999999960041972e-13,
        9.999999960041972e-13
      ],
      "translation": [
        -0.038665771484375,
        -0.006092101335525513,
        -0.011439844965934753
      ]
    },
    {
      "mesh": 8,
      "name": "Flame 1_Flame_0"
    },
    {
      "children": [
        36
      ],
      "name": "Flame 2",
      "rotation": [
        -3.1554435666003195e-17,
        2.52435488636748e-17,
        7.965459206793873e-34,
        1.0
      ],
      "scale": [
        9.999999960041972e-13,
        9.999999960041972e-13,
        9.999999960041972e-13
      ],
      "translation": [
        -0.04479198157787323,
        0.013212591409683228,
        -0.0007499605417251587
      ]
    },
    {
      "mesh": 9,
      "name": "Flame 2_Flame_0"
    },
    {
      "children": [
        38
      ],
      "name": "Knob 1",
      "rotation": [
        -0.1990082859992981,
        -0.6849082112312317,
        0.20318487286567688,
        0.6708295941352844
      ],
      "scale": [
        1.000000238418579,
        1.0000001192092896,
        1.0000001192092896
      ],
      "translation": [
        0.029962889850139618,
        -0.05377775430679321,
        0.02871406078338623
      ]
    },
    {
      "mesh": 10,
      "name": "Knob 1_Lamp Material_0"
    },
    {
      "children": [
        40
      ],
      "name": "Knob 2",
      "rotation": [
        -0.1990082859992981,
        -0.6849082112312317,
        0.20318487286567688,
        0.6708295941352844
      ],
      "scale": [
        1.000000238418579,
        1.0000001192092896,
        1.0000001192092896
      ],
      "translation": [
        0.029962711036205292,
        -0.05082017183303833,
        0.047474607825279236
      ]
    },
    {
      "mesh": 11,
      "name": "Knob 2_Lamp Material_0"
    },
    {
      "children": [
        42
      ],
      "name": "Lamp",
      "rotation": [
        5.960464477539063e-08,
        -1.1102230246251565e-16,
        1.1102234216718506e-16,
        1.0
      ],
      "scale": [
        2.648836851119995,
        2.648836851119995,
        2.648836851119995
      ],
      "translation": [
        -0.036426227539777756,
        0.9231516718864441,
        0.2547174394130707
      ]
    },
    {
      "mesh": 12,
      "name": "Lamp_Lamp Material_0"
    },
    {
      "children": [
        44,
        45,
        49,
        53
      ],
      "name": "Electric",
      "rotation": [
        -6.908828469444437e-16,
        6.033542110372991e-09,
        -0.8300535082817078,
        0.5576837658882141
      ],
      "scale": [
        2.648836612701416,
        2.648836612701416,
        2.648836851119995
      ],
      "translation": [
        -0.010601840913295746,
        -0.013768736273050308,
        1.2994341850280762
      ]
    },
    {
      "mesh": 13,
      "name": "Electric_Lamp Material_0"
    },
    {
      "children": [
        46,
        47
      ],
      "name": "Bulb Glass",
      "rotation": [
        0.7403037548065186,
        -0.1105053648352623,
        -0.12564188241958618,
        0.6511167883872986
      ],
      "scale": [
        0.030970392748713493,
        0.030970392748713493,
        0.030970392748713493
      ],
      "translation": [
        -0.10750619322061539,
        -0.04283031076192856,
        0.005374847911298275
      ]
    },
    {
      "mesh": 14,
      "name": "Bulb Glass_Bulb Glass_0"
    },
    {
      "children": [
        48
      ],
      "name": "Filament Ferrule",
      "rotation": [
        -6.802507123738566e-18,
        7.839158655542633e-09,
        1.6535549596241594e-09,
        1.0
      ],
      "scale": [
        0.5632244348526001,
        0.5632244348526001,
        0.7025085091590881
      ],
      "translation": [
        4.440892098500626e-16,
        -2.1457672119140625e-06,
        -0.5327466726303101
      ]
    },
    {
      "mesh": 15,
      "name": "Filament Ferrule_Filament Material_0"
    },
    {
      "children": [
        50,
        51
      ],
      "name": "Bulb Glass.001",
      "rotation": [
        0.45351508259773254,
        0.5797979235649109,
        0.5154101848602295,
        0.4387604892253876
      ],
      "scale": [
        0.030970394611358643,
        0.030970392748713493,
        0.030970396474003792
      ],
      "translation": [
        0.09097035974264145,
        -0.06750340759754181,
        0.0072183310985565186
      ]
    },
    {
      "mesh": 16,
      "name": "Bulb Glass.001_Bulb Glass_0"
    },
    {
      "children": [
        52
      ],
      "name": "Filament Ferrule.001",
      "rotation": [
        -1.6535549596241594e-09,
        -7.059687501254075e-09,
        -8.267774798120797e-10,
        1.0
      ],
      "scale": [
        0.5632244348526001,
        0.5632244348526001,
        0.7025085091590881
      ],
      "translation": [
        2.384185791015625e-07,
        -9.685754776000977e-08,
        -0.5327465534210205
      ]
    },
    {
      "mesh": 17,
      "name": "Filament Ferrule.001_Filament Material_0"
    },
    {
      "children": [
        54,
        55
      ],
      "name": "Bulb Glass.002",
      "rotation": [
        -0.2845522165298462,
        0.6850459575653076,
        0.6296194791793823,
        -0.23091420531272888
      ],
      "scale": [
        0.030970394611358643,
        0.030970390886068344,
        0.030970390886068344
      ],
      "translation": [
        0.010048875585198402,
        0.11431726813316345,
        0.0067414953373372555
      ]
    },
    {
      "mesh": 18,
      "name": "Bulb Glass.002_Bulb Glass_0"
    },
    {
      "children": [
        56
      ],
      "name": "Filament Ferrule.002",
      "rotation": [
        3.307109919248319e-09,
        -3.6376417433814368e-09,
        8.267774798120797e-10,
        1.0
      ],
      "scale": [
        0.5632244348526001,
        0.5632244348526001,
        0.7025085687637329
      ],
      "translation": [
        -2.384185791015625e-07,
        4.470348358154297e-07,
        -0.5327467918395996
      ]
    },
    {
      "mesh": 19,
      "name": "Filament Ferrule.002_Filament Material_0"
    },
    {
      "children": [
        58
      ],
      "name": "Finial Simple",
      "rotation": [
        -0.4853280186653137,
        -0.02131032571196556,
        -0.003007838036864996,
        0.8740673661231995
      ],
      "scale": [
        99.99999237060547,
        99.99999237060547,
        99.99999237060547
      ],
      "translation": [
        -1.4131978750228882,
        62.61301803588867,
        0.29439038038253784
      ]
    },
    {
      "mesh": 20,
      "name": "Finial Simple_Lamp Material_0"
    }
  ],
  "samplers": [
    {
      "magFilter": 9729,
      "minFilter": 9987,
      "wrapS": 10497,
      "wrapT": 10497
    }
  ],
  "scene": 0,
  "scenes": [
    {
      "name": "Sketchfab_Scene",
      "nodes": [
        0
      ]
    }
  ],
  "skins": [
    {
      "inverseBindMatrices": 92,
      "joints": [
        8,
        9,
        10,
        11,
        12,
        13,
        14,
        15,
        16,
        17,
        18
      ],
      "skeleton": 8
    }
  ],
  "textures": [
    {
      "sampler": 0,
      "source": 0
    },
    {
      "sampler": 0,
      "source": 1
    },
    {
      "sampler": 0,
      "source": 2
    },
    {
      "sampler": 0,
      "source": 3
    },
    {
      "sampler": 0,
      "source": 4
    },
    {
      "sampler": 0,
      "source": 5
    },
    {
      "sampler": 0,
      "source": 6
    },
    {
      "sampler": 0,
      "source": 7
    },
    {
      "sampler": 0,
      "source": 8
    },
    {
      "sampler": 0,
      "source": 9
    },
    {
      "sampler": 0,
      "source": 10
    },
    {
      "sampler": 0,
      "source": 11
    },
    {
      "sampler": 0,
      "source": 12
    },
    {
      "sampler": 0,
      "source": 13
    },
    {
      "sampler": 0,
      "source": 14
    },
    {
      "sampler": 0,
      "source": 15
    },
    {
      "sampler": 0,
      "source": 16
    },
    {
      "sampler": 0,
      "source": 17
    }
  ]
}
